<svg xmlns="http://www.w3.org/2000/svg" viewBox="0 0 128 128" role="img" aria-label="Relvaload.ee favicon">
  <defs>
    <linearGradient id="bg" x1="0" y1="0" x2="1" y2="1">
      <stop offset="0" stop-color="#546273"/>
      <stop offset="0.55" stop-color="#3e4a59"/>
      <stop offset="1" stop-color="#202832"/>
    </linearGradient>

    <linearGradient id="accent" x1="0" y1="0" x2="1" y2="0">
      <stop offset="0" stop-color="#b8f0f8"/>
      <stop offset="0.52" stop-color="#d8c6f4"/>
      <stop offset="1" stop-color="#f7e7c6"/>
    </linearGradient>

    <radialGradient id="glow" cx="0.25" cy="0.18" r="0.9">
      <stop offset="0" stop-color="#ffffff" stop-opacity="0.22"/>
      <stop offset="0.38" stop-color="#ffffff" stop-opacity="0.10"/>
      <stop offset="1" stop-color="#ffffff" stop-opacity="0"/>
    </radialGradient>

    <filter id="soft-shadow" x="-20%" y="-20%" width="140%" height="140%">
      <feDropShadow dx="0" dy="2" stdDeviation="3.2" flood-color="#10161d" flood-opacity="0.28"/>
    </filter>
  </defs>

  <circle cx="64" cy="64" r="64" fill="url(#bg)"/>
  <circle cx="64" cy="64" r="64" fill="url(#glow)"/>
  <circle cx="64" cy="64" r="58" fill="none" stroke="#f6f9fc" stroke-opacity="0.12" stroke-width="2"/>

  <path
    d="M37 23h27c19 0 32 11 32 28 0 12-7 22-19 27l20 27H80L63 82H50v23H37V23zm13 12v35h12c13 0 21-6 21-18s-8-17-21-17H50z"
    fill="#f7fafc"
    filter="url(#soft-shadow)"
  />

  <path
    d="M26 90c12-7 21-7 31-10 11-4 17-11 25-11 8 0 14 3 20 7"
    fill="none"
    stroke="url(#accent)"
    stroke-width="10"
    stroke-linecap="round"
    stroke-linejoin="round"
    opacity="0.96"
  />

  <path
    d="M30 90c12-7 21-7 31-10 11-4 17-11 25-11 8 0 14 3 20 7"
    fill="none"
    stroke="#ffffff"
    stroke-opacity="0.18"
    stroke-width="2"
    stroke-linecap="round"
    stroke-linejoin="round"
  />
</svg>
