<svg xmlns="http://www.w3.org/2000/svg" viewBox="0 0 128 128" role="img" aria-labelledby="title desc">
  <title id="title">Relvaload abstract logo option 13</title>
  <desc id="desc">A soft rounded abstract circle inspired by Estonian blue, charcoal, and white.</desc>
  <defs>
    <clipPath id="circle">
      <circle cx="64" cy="64" r="64"/>
    </clipPath>
    <linearGradient id="bg" x1="20" y1="4" x2="111" y2="125" gradientUnits="userSpaceOnUse">
      <stop offset="0" stop-color="#d8e8f0"/>
      <stop offset=".44" stop-color="#8fb9d4"/>
      <stop offset="1" stop-color="#496e91"/>
    </linearGradient>
    <filter id="blur" x="-25%" y="-25%" width="150%" height="150%">
      <feGaussianBlur stdDeviation="2.2"/>
    </filter>
  </defs>
  <g clip-path="url(#circle)">
    <circle cx="64" cy="64" r="64" fill="url(#bg)"/>
    <ellipse cx="30" cy="24" rx="52" ry="36" fill="#f7f8f4" opacity=".42" filter="url(#blur)" transform="rotate(-18 30 24)"/>
    <path fill="#151d26" opacity=".64" d="M-12 74c17-18 39-24 61-17 21 6 32 24 52 31 14 5 27 2 39-8v58H-12Z"/>
    <path fill="#f7f8f4" opacity=".7" d="M-9 93c18-13 38-16 58-9 18 6 32 20 51 24 14 3 27 0 40-8v39H-9Z"/>
    <path fill="#6f9fc0" opacity=".52" d="M38-4c16 17 23 34 20 52-3 18-16 34-17 52-1 11 3 22 12 34H23C12 117 8 100 12 82c4-17 15-33 17-49 1-11-2-23-9-37Z"/>
    <path fill="#f9faf8" opacity=".38" d="M87-8c-10 17-13 34-9 50 4 18 17 32 24 48 6 14 5 27-3 41h-23c8-17 8-33 1-48-6-14-17-27-20-43-3-15 0-31 10-48Z"/>
  </g>
</svg>
