<svg xmlns="http://www.w3.org/2000/svg" viewBox="0 0 128 128" role="img" aria-labelledby="title desc">
  <title id="title">Relvaload abstract logo option 09</title>
  <desc id="desc">A soft glassy abstract logo with blue, charcoal, and pale highlights.</desc>
  <defs>
    <clipPath id="circle">
      <circle cx="64" cy="64" r="64"/>
    </clipPath>
    <linearGradient id="bg" x1="0" y1="17" x2="128" y2="111" gradientUnits="userSpaceOnUse">
      <stop offset="0" stop-color="#dce9ef"/>
      <stop offset=".44" stop-color="#8cb8d6"/>
      <stop offset="1" stop-color="#304f6d"/>
    </linearGradient>
    <filter id="blur" x="-20%" y="-20%" width="140%" height="140%">
      <feGaussianBlur stdDeviation="2.4"/>
    </filter>
  </defs>
  <g clip-path="url(#circle)">
    <rect width="128" height="128" fill="url(#bg)"/>
    <ellipse cx="49" cy="56" rx="58" ry="82" fill="#f8faf8" opacity=".48" transform="rotate(-28 49 56)"/>
    <ellipse cx="91" cy="70" rx="39" ry="84" fill="#121821" opacity=".78" transform="rotate(28 91 70)"/>
    <ellipse cx="65" cy="63" rx="26" ry="78" fill="#5e93bc" opacity=".65" transform="rotate(17 65 63)"/>
    <path fill="#f6f8f8" opacity=".56" filter="url(#blur)" d="M20 13c34 10 58 30 73 60 7 15 11 30 11 47H86c-2-39-24-69-66-91Z"/>
    <path fill="#18202a" opacity=".38" d="M-7 86c21-11 44-13 67-5 21 8 39 25 75 19v30H-7Z"/>
    <path fill="#f7f8f5" opacity=".76" d="M52 0c-8 31-7 58 3 81 8 18 22 34 41 47H75c-19-12-33-27-42-47C22 55 22 28 34 0Z"/>
  </g>
</svg>
