<svg xmlns="http://www.w3.org/2000/svg" viewBox="0 0 128 128" role="img" aria-labelledby="title desc">
  <title id="title">Relvaload abstract logo option 16</title>
  <desc id="desc">A silky rounded abstract circle in softer Estonian-inspired colors.</desc>
  <defs>
    <clipPath id="circle">
      <circle cx="64" cy="64" r="64"/>
    </clipPath>
    <radialGradient id="base" cx="37" cy="25" r="91" gradientUnits="userSpaceOnUse">
      <stop offset="0" stop-color="#eef6f7"/>
      <stop offset=".48" stop-color="#8bb7d2"/>
      <stop offset="1" stop-color="#385b78"/>
    </radialGradient>
    <filter id="soft" x="-25%" y="-25%" width="150%" height="150%">
      <feGaussianBlur stdDeviation="1.4"/>
    </filter>
  </defs>
  <g clip-path="url(#circle)">
    <rect width="128" height="128" fill="url(#base)"/>
    <path fill="#17202a" opacity=".63" filter="url(#soft)" d="M-10 61c20-19 44-27 70-22 24 5 42 21 71 23v70H-10Z"/>
    <path fill="#f8faf7" opacity=".72" d="M-8 80c23-12 47-15 70-8 25 8 42 25 75 24v39H-8Z"/>
    <path fill="#6e9fc3" opacity=".7" d="M24-8c18 19 29 39 32 60 3 24-5 48-22 76H5c21-29 31-55 29-77-2-20-12-40-31-59Z"/>
    <path fill="#eff6f6" opacity=".62" d="M56-10c17 23 25 45 23 66-2 24-15 46-39 72H24c24-26 37-49 39-70 2-20-6-42-25-68Z"/>
    <path fill="#151d26" opacity=".42" d="M94-9c-11 22-14 43-7 63 5 17 18 33 39 49v31h-16c-25-19-40-39-45-61-6-25-1-53 16-82Z"/>
  </g>
</svg>
